<?xml version="1.0" encoding="UTF-8"?>
<!-- Created with Inkscape (http://www.inkscape.org/) -->
<svg width="3451.1" height="636.94" version="1.1" viewBox="0 0 913.11 168.52" xmlns="http://www.w3.org/2000/svg" xmlns:cc="http://creativecommons.org/ns#" xmlns:dc="http://purl.org/dc/elements/1.1/" xmlns:osb="http://www.openswatchbook.org/uri/2009/osb" xmlns:rdf="http://www.w3.org/1999/02/22-rdf-syntax-ns#">
 <metadata>
  <rdf:RDF>
   <cc:Work rdf:about="">
    <dc:format>image/svg+xml</dc:format>
    <dc:type rdf:resource="http://purl.org/dc/dcmitype/StillImage"/>
    <dc:title/>
   </cc:Work>
  </rdf:RDF>
 </metadata>
 <g transform="translate(2.6064 -53.123)">
  <path d="m226.82 155.4 166.18-30.285 30.501 73.777-110.79-5.5419z" fill="#3d064a" stroke="#000" stroke-width=".55183px"/>
 </g>
 <g transform="translate(2.6064 -53.123)">
  <path d="m105.77 103.32 262.89 85.954-167.41-10.535z" fill="#691143"/>
 </g>
 <g transform="translate(2.6064 -53.123)">
  <path d="m393 125.12 5.2917-18.488 94.177 50.173-123.76 46.826z" fill="#f19e3a"/>
 </g>
 <g transform="translate(2.6064 -53.123)">
  <path d="m368.65 189.27 168.78-56.063 148.01 69.684z" fill="#4498f6"/>
 </g>
 <g transform="translate(2.6064 -53.123)">
  <path d="m201.24 178.73 603.41 29.603-1.6102 16.258-544.55-2.4506z" fill="#8e1a10" stroke="#8e1a10" stroke-width=".50845"/>
 </g>
 <g transform="translate(1.3904 -6.8012)">
  <path d="m727.88 175.71 62.399-59.693 13.975 62.257z" fill="#03468f"/>
 </g>
 <g transform="translate(1.3904 -6.8012)">
  <path d="m787.26 106.23 124.46 70.781-107.47 1.2574z" fill="#dc6969"/>
 </g>
 <g transform="translate(1.3904 -6.8012)">
  <path d="m647.08 176.57 33.64-49.302 105.46 50.072z" fill="#008080"/>
 </g>
 <g transform="translate(2.6064 -134.22)">
  <path d="m65.561 152.95c-9.9968 10.715-19.219 21.734-28.787 32.612-12.582 14.576-26.343 28.189-38.814 42.793-0.83786 22.909-0.033163 46.755-0.19243 69.669 0.20324 1.7071 0.15607 5.5502 0.15607 5.5502 4.1675-0.0474 8.9368-0.20513 13.208-0.0347 76.154 0.45833 152.61-0.15185 228.76 0.063 6.5812 0.17025 13.245-0.26261 18.592 0.71612 1.2143-0.82471-1.3966-1.6964-1.9102-2.4701-54.393-43.008-109.18-85.818-163.92-128.65-8.7878-6.761-17.349-13.655-26.395-20.273z" fill="#d25428" stroke-width=".33703"/>
 </g>
 <g transform="translate(1.3904 -6.8012)">
  <path d="m-0.86119 175.08c0.57413 0.0292 0.28706 0.0147 0 0z" fill="#800080"/>
  <path d="m76.446 6.8012-17.234 171.04-62.115-2.2228 0.85447-105.09z" fill="#a6006e"/>
 </g>
</svg>
