<?xml version="1.0" encoding="UTF-8"?>
<!-- Created with Inkscape (http://www.inkscape.org/) -->
<svg width="14.174in" height="4.2661in" version="1.1" viewBox="0 0 360.02 108.36" xmlns="http://www.w3.org/2000/svg" xmlns:cc="http://creativecommons.org/ns#" xmlns:dc="http://purl.org/dc/elements/1.1/" xmlns:rdf="http://www.w3.org/1999/02/22-rdf-syntax-ns#">
 <metadata>
  <rdf:RDF>
   <cc:Work rdf:about="">
    <dc:format>image/svg+xml</dc:format>
    <dc:type rdf:resource="http://purl.org/dc/dcmitype/StillImage"/>
    <dc:title/>
   </cc:Work>
  </rdf:RDF>
 </metadata>
 <g transform="translate(1.2161 -109.94)">
  <path d="m105.09 175.55 71.732-16.738 13.74 45.706-49.91-3.4333z" fill="#000080" stroke="#000" stroke-width=".29152px"/>
 </g>
 <g transform="translate(1.2161 -109.94)">
  <path d="m52.003 137.88 87.921 58.053-43.96-2.9027z" fill="#972f6a" stroke="#000" stroke-width=".26983px"/>
 </g>
 <g transform="translate(1.2161 -191.04)">
  <path d="m29.316 191.06c-4.5034 7.7128-8.6578 15.645-12.968 23.475-5.6678 10.492-13.805 20.692-19.423 31.205-0.37744 16.49 1.9228 33.254 1.851 49.749 0.091556 1.2288-0.14338 2.5465 0.20394 3.7279 1.8774 0.36684 3.8923 0.11961 5.8164 0.24223 34.306 0.32992 68.613 0.62569 102.92 0.78037 2.8311-0.0779 5.6995 0.14505 8.5089-0.21951 0.54701-0.59364-0.62912-1.2211-0.86053-1.778-24.503-30.958-49.184-61.774-73.843-92.607-3.9588-4.8668-7.8153-9.8291-11.891-14.593l-0.19056 0.0113z" fill="#005865" stroke-width=".19192"/>
 </g>
 <g transform="translate(1.2161 -109.94)">
  <path d="m176.82 158.81 114.84 42.904-6.4566 3.0479-96.208-5.7486z" fill="#4e1837" stroke="#000" stroke-width=".27534px"/>
 </g>
 <g transform="translate(1.2161 -109.94)">
  <path d="m279.99 204.77 79.978-33.188 2.2905 38.784z" fill="#64878b" stroke="#000" stroke-width=".26868px"/>
 </g>
 <g transform="translate(1.2161 -109.94)">
  <path d="m96.215 193.04 265.51 16.787-0.19088 10.612-245.31-1.5182z" fill="#800000" stroke="#000" stroke-width=".26868px"/>
 </g>
</svg>
