<?xml version="1.0" encoding="UTF-8"?>
<!-- Created with Inkscape (http://www.inkscape.org/) -->
<svg width="3450.5" height="648.94" version="1.1" viewBox="1.1 -3.3 912.93 171.7" xmlns="http://www.w3.org/2000/svg" xmlns:cc="http://creativecommons.org/ns#" xmlns:dc="http://purl.org/dc/elements/1.1/" xmlns:osb="http://www.openswatchbook.org/uri/2009/osb" xmlns:rdf="http://www.w3.org/1999/02/22-rdf-syntax-ns#">
 <metadata>
  <rdf:RDF>
   <cc:Work rdf:about="">
    <dc:format>image/svg+xml</dc:format>
    <dc:type rdf:resource="http://purl.org/dc/dcmitype/StillImage"/>
    <dc:title/>
   </cc:Work>
  </rdf:RDF>
 </metadata>
 <g transform="translate(2.4288 -49.948)">
  <path d="m226.82 153.49 166.18-29.72 30.501 72.399-110.79-5.4384z" fill="#3d064a" stroke="#000" stroke-width=".54665px"/>
 </g>
 <g transform="translate(2.4288 -49.948)">
  <path d="m105.77 102.38 262.89 84.348-167.41-10.339z" fill="#691143"/>
 </g>
 <g transform="translate(2.4288 -49.948)">
  <path d="m393 123.77 5.2917-18.143 94.177 49.236-123.76 45.952z" fill="#f19e3a"/>
 </g>
 <g transform="translate(2.4288 -49.948)">
  <path d="m368.65 186.73 168.78-55.016 148.01 68.382z" fill="#4498f6"/>
 </g>
 <g transform="translate(2.4288 -49.948)">
  <path d="m201.24 176.39 603.41 29.05-1.6102 15.954-544.55-2.4048z" fill="#8e1a10" stroke="#8e1a10" stroke-width=".50368"/>
 </g>
 <g transform="translate(1.2128 -3.6262)">
  <path d="m727.88 172.56 62.399-58.578 13.975 61.094z" fill="#03468f"/>
 </g>
 <g transform="translate(1.2128 -3.6262)">
  <path d="m787.26 104.38 124.46 69.46-107.47 1.234z" fill="#dc6969"/>
 </g>
 <g transform="translate(1.2128 -3.6262)">
  <path d="m647.08 173.4 33.64-48.381 105.46 49.137z" fill="#008080"/>
 </g>
 <g transform="translate(2.4288 -131.05)">
  <path d="m65.561 151.55c-9.9968 10.515-19.219 21.328-28.787 32.003-12.582 14.303-26.343 27.662-38.814 41.994-0.83786 22.481-0.033163 45.881-0.19243 68.368 0.20324 1.6752 0.15607 5.4465 0.15607 5.4465 4.1675-0.0465 8.9368-0.2013 13.208-0.0341 76.154 0.44977 152.61-0.14901 228.76 0.0618 6.5812 0.16707 13.245-0.25771 18.592 0.70274 1.2143-0.8093-1.3966-1.6647-1.9102-2.4239-54.393-42.205-109.18-84.215-163.92-126.25-8.7878-6.6347-17.349-13.4-26.395-19.894z" fill="#d25428" stroke-width=".33387"/>
 </g>
 <g transform="translate(1.2128 -3.6262)">
  <path d="m-0.86119 171.94c0.57413 0.0287 0.28706 0.0144 0 0z" fill="#800080"/>
  <path d="m76.975 6.2721-16.905 167.85-60.931-2.1812 0.83819-103.12z" fill="#a6006e"/>
 </g>
</svg>
